# xmcd
#
# Track frame offsets:
#	150
#	13670
#	25635
#	39047
#	52885
#	67022
#	85535
#	103285
#	114610
#	128835
#	141122
#	153572
#
# Disc length: 2233 seconds
#
# Revision: 3
# Processed by: cddbd v1.4PL0 Copyright (c) Steve Scherf et al.
# Submitted via: MusicWizard 6.0.0
#
DISCID=9308b70c
DTITLE=Various Artist - Jokers and Wildcards
DYEAR=1994
DGENRE=Country
TTITLE0=Johnny Cash - The Chicken In Black
TTITLE1=Charlie Walker - Please Don't Squeeze My Sharmon
TTITLE2=Johnny Bond - Ten Little Bottles
TTITLE3=Kenny Roberts - I Never See Maggie Alone
TTITLE4=Billy Edd Wheeler - Ode To The Little Brown Shack
TTITLE5=Cledus Maggard And The Citizen's Band - The White Knight
TTITLE6=Shel Silverstein - A Front Row Seat To Hear Ole Johnny Sing
TTITLE7=Leroy Pullins - I'm A Nut
TTITLE8=The Country Gentlemen - Big Bruce
TTITLE9=Bob Atcher - I'm Thinking Tonight Of My Blue Eyes
TTITLE10=Lonzo and Oscar - I'm My Own Grandpa
TTITLE11=The Great Pretender - All Over Again, Again
EXTD=(c)1994 Sony Music Special Products AK 66395\nupc 07464639528\n
EXTT0=
EXTT1=
EXTT2=
EXTT3=
EXTT4=
EXTT5=
EXTT6=
EXTT7=
EXTT8=
EXTT9=
EXTT10=
EXTT11=
PLAYORDER=
